Coordinates
version=1
nRows=21
nColumns=33
inDegrees=yes

Units are S.I. units (second, meters, Newtons, ...)
Angles are in degrees.

endheader
time	ground_thorax_rot_x	ground_thorax_rot_y	ground_thorax_rot_z	ground_thorax_tx	ground_thorax_ty	ground_thorax_tz	clav_prot_r	clav_elev_r	scapula_abduction_r	scapula_elevation_r	scapula_upward_rot_r	scapula_winging_r	shoulder_elv_r	plane_of_elev_r	axial_rot_r	elbow_flexion_r	pro_sup_r	wrist_flex_r	wrist_dev_r	clav_prot_l	clav_elev_l	scapula_abduction_l	scapula_elevation_l	scapula_upward_rot_l	scapula_winging_l	shoulder_elv_l	plane_of_elev_l	axial_rot_l	elbow_flexion_l	pro_sup_l	wrist_flex_l	wrist_dev_l
      5.80000000	    -38.43254107	    -13.80666816	     17.23118850	   -235.59895310	    827.28709133	      5.96918898	      9.53125826	    -45.00000000	     38.58663343	    -45.00000000	    -45.00000000	   3135.78567587	   -465.81082368	    148.98810632	   -106.62758862	   1104.99787968	    143.58377971	     12.94985514	      4.57352878	     13.77652739	     37.38329783	    -35.45791580	    -45.00000000	    -45.00000000	  -2073.91789523	    984.32857845	    135.70501264	   -169.16683660	   2168.77706795	     26.92094148	      6.07554499	    -23.04177137
      5.81000000	    -38.36439691	    -13.96859327	     17.29925981	   -234.13772729	    827.38620661	      5.92464949	      9.54018623	    -45.00000000	     38.66982718	    -45.00000000	    -45.00000000	   3135.85875025	   -465.72207560	    148.96212377	   -106.67373093	   1105.04077267	    144.69284974	     12.82979624	      4.65089703	     13.80842502	     37.42553383	    -35.47133631	    -45.00000000	    -45.00000000	  -2073.95116082	    984.45690867	    135.68724956	   -169.11913033	   2168.87488529	     26.39353991	      6.20905748	    -23.02635258
      5.82000000	    -38.53109484	    -13.70660875	     17.11144259	   -232.50391388	    827.46789634	      5.88061533	      9.03931966	    -45.00000000	     38.32686085	    -45.00000000	    -45.00000000	   3136.17498479	   -465.71312207	    148.98491859	   -106.81068905	   1105.16659744	    146.26476676	     12.71061466	      4.72163230	     14.62467147	     37.77693557	    -36.02240680	    -45.00000000	    -45.00000000	  -2073.63946954	    984.42640186	    135.39854882	   -169.40060846	   2168.81808923	     25.67956585	      6.46091551	    -23.02914626
      5.83000000	    -38.44946433	    -13.83435541	     17.18107894	   -230.69049714	    827.52737676	      5.83413932	      9.15951058	    -45.00000000	     38.38717716	    -45.00000000	    -45.00000000	   3136.23376619	   -465.68107913	    148.89905145	   -106.88611988	   1105.18135514	    147.68742923	     12.59023894	      4.80135184	     14.58654927	     37.78628551	    -36.10580558	    -45.00000000	    -45.00000000	  -2073.65290006	    984.44836464	    135.34659043	   -169.39832564	   2168.93457905	     24.93024894	      6.62132890	    -22.97796305
      5.84000000	    -38.39257735	    -13.89985422	     17.20327380	   -228.68882874	    827.55785657	      5.78312672	      9.14938646	    -45.00000000	     38.48247527	    -45.00000000	    -45.00000000	   3136.34494398	   -465.60385223	    148.81655770	   -107.01740512	   1105.20916364	    149.11213485	     12.47102125	      4.87111156	     14.69373864	     37.83527973	    -36.23314935	    -45.00000000	    -45.00000000	  -2073.67254217	    984.54473035	    135.26348838	   -169.39396832	   2168.95533748	     24.19413563	      6.81992276	    -22.92233351
      5.85000000	    -38.31152648	    -14.04395412	     17.32189940	   -226.50013306	    827.55303682	      5.72612635	      9.23399923	    -45.00000000	     38.54766039	    -45.00000000	    -45.00000000	   3136.43418282	   -465.62169457	    148.73783170	   -107.16511163	   1105.23947106	    150.53795612	     12.35120142	      4.93534230	     14.65199299	     37.81280628	    -36.32292161	    -45.00000000	    -45.00000000	  -2073.74671876	    984.54160199	    135.21587545	   -169.33047212	   2169.06036892	     23.47641935	      6.99235896	    -22.86068424
      5.86000000	    -38.25765649	    -14.16219118	     17.37379897	   -224.11631466	    827.50675344	      5.66267025	      9.23731397	    -45.00000000	     38.66126279	    -45.00000000	    -45.00000000	   3136.56493114	   -465.59934309	    148.61910585	   -107.33710870	   1105.27625643	    152.03676721	     12.22603085	      4.99919728	     14.69942982	     37.82636655	    -36.48159504	    -45.00000000	    -45.00000000	  -2073.79587097	    984.57117869	    135.18423935	   -169.25611459	   2169.09953667	     22.78255421	      7.19716518	    -22.79458340
      5.87000000	    -38.20055392	    -14.30050316	     17.51717172	   -221.53920934	    827.41348928	      5.59380059	      9.17485353	    -45.00000000	     38.69320067	    -45.00000000	    -45.00000000	   3136.73204246	   -465.54709068	    148.55415278	   -107.58348605	   1105.27306126	    153.72285289	     12.10144534	      5.06720649	     14.89239054	     37.90943922	    -36.66412989	    -45.00000000	    -45.00000000	  -2073.81832734	    984.56987273	    135.16290606	   -169.20158160	   2169.23804140	     22.07383429	      7.40249617	    -22.74289270
      5.88000000	    -38.13813569	    -14.45735497	     17.69849272	   -218.77070565	    827.26797557	      5.52227701	      9.17263089	    -45.00000000	     38.75269976	    -45.00000000	    -45.00000000	   3136.87946239	   -465.54280976	    148.46981672	   -107.80266688	   1105.29213177	    155.53065413	     11.97025411	      5.11622480	     14.96453521	     37.92193014	    -36.82080724	    -45.00000000	    -45.00000000	  -2073.89667221	    984.59600240	    135.15244366	   -169.13506612	   2169.31316742	     21.38624234	      7.61097006	    -22.66236892
      5.89000000	    -38.06271988	    -14.61202439	     17.86857490	   -215.81254670	    827.06422378	      5.45188616	      9.26063212	    -45.00000000	     38.86962271	    -45.00000000	    -45.00000000	   3137.01837710	   -465.51115938	    148.33735614	   -107.96655563	   1105.27528063	    157.34456341	     11.82934914	      5.17058569	     14.96231143	     37.93190180	    -36.94142310	    -45.00000000	    -45.00000000	  -2073.96557126	    984.65152052	    135.02943579	   -169.04842808	   2169.38342058	     20.75377542	      7.84123519	    -22.57610886
      5.90000000	    -38.00516048	    -14.78724702	     18.07433748	   -212.66616437	    826.79293940	      5.38680991	      9.41201815	    -45.00000000	     38.96406543	    -45.00000000	    -45.00000000	   3137.11681221	   -465.53737303	    148.15043613	   -108.13168807	   1105.27485113	    159.15713030	     11.68338078	      5.19096201	     14.85100208	     37.88509765	    -37.05522203	    -45.00000000	    -45.00000000	  -2074.04058302	    984.71895703	    134.88782925	   -168.95584333	   2169.39521255	     20.18716192	      8.07057403	    -22.46358193
      5.91000000	    -37.94057246	    -15.02853278	     18.42449242	   -209.33350634	    826.44017976	      5.33025890	      9.13994583	    -45.00000000	     38.95087350	    -45.00000000	    -45.00000000	   3137.40732200	   -465.44328870	    148.20781336	   -108.48358854	   1105.24797908	    161.54509063	     11.53751776	      5.19294900	     15.24668073	     37.99103505	    -37.35624914	    -45.00000000	    -45.00000000	  -2074.17305172	    984.62004843	    135.07021175	   -168.95105053	   2169.56184609	     19.54932928	      8.26085195	    -22.37418705
      5.92000000	    -37.89636011	    -15.26587142	     18.70305823	   -205.81337659	    825.98824501	      5.28311181	      9.26730853	    -45.00000000	     39.03360508	    -45.00000000	    -45.00000000	   3137.56712770	   -465.51283566	    148.07301592	   -108.58349158	   1105.20668257	    163.73189621	     11.37070822	      5.22931555	     15.30451894	     38.03173837	    -37.49564204	    -45.00000000	    -45.00000000	  -2074.20314829	    984.65706801	    134.90151285	   -168.87854731	   2169.59771583	     19.01535700	      8.53314478	    -22.25803902
      5.93000000	    -37.84351267	    -15.56441802	     19.05504256	   -202.11052193	    825.41518252	      5.24339519	      9.27705940	    -45.00000000	     39.10080685	    -45.00000000	    -45.00000000	   3137.77551038	   -465.52760735	    147.98131416	   -108.70993855	   1105.18649255	    165.99543350	     11.20286090	      5.21734213	     15.37188173	     38.05051302	    -37.64747868	    -45.00000000	    -45.00000000	  -2074.30840155	    984.67863446	    134.87366981	   -168.82255443	   2169.64009483	     18.53463027	      8.75825820	    -22.11931715
      5.94000000	    -37.77062164	    -15.88271248	     19.41479720	   -198.22348678	    824.69766442	      5.20681654	      9.32057027	    -45.00000000	     39.21127832	    -45.00000000	    -45.00000000	   3138.00281834	   -465.56653623	    147.89699426	   -108.81542522	   1105.11298693	    168.21517911	     11.04108802	      5.19175854	     15.43511434	     38.07458806	    -37.82764257	    -45.00000000	    -45.00000000	  -2074.39076689	    984.60685613	    134.82242713	   -168.75944485	   2169.71005067	     18.13463564	      8.98791468	    -21.98337816
      5.95000000	    -37.66841659	    -16.23463411	     19.90276464	   -194.15822051	    823.81432987	      5.16802659	      9.26016713	    -45.00000000	     39.21848733	    -45.00000000	    -45.00000000	   3138.22725049	   -465.57918562	    147.85182337	   -108.92255900	   1105.03454966	    170.58379249	     10.88005310	      5.12570865	     15.53661321	     38.09512899	    -37.97828905	    -45.00000000	    -45.00000000	  -2074.60325748	    984.58883868	    134.83348327	   -168.69059642	   2169.73082661	     17.80336164	      9.21340463	    -21.82896893
      5.96000000	    -37.57570799	    -16.62359760	     20.36805700	   -189.91371404	    822.74617390	      5.12209421	      9.37967650	    -45.00000000	     39.31772453	    -45.00000000	    -45.00000000	   3138.45426232	   -465.69552717	    147.77969532	   -108.90565965	   1104.93277994	    172.65443835	     10.72163229	      5.08835588	     15.58793683	     38.14564322	    -38.08840447	    -45.00000000	    -45.00000000	  -2074.68085507	    984.56251734	    134.66743900	   -168.61194075	   2169.68224653	     17.61074835	      9.47422577	    -21.67326014
      5.97000000	    -37.46443992	    -17.05639858	     20.86721222	   -185.49888983	    821.47916991	      5.06442971	      9.51264067	    -45.00000000	     39.42983623	    -45.00000000	    -45.00000000	   3138.66384903	   -465.81951246	    147.67646393	   -108.85888832	   1104.84350815	    174.56740412	     10.57018178	      5.00840484	     15.53919312	     38.11373819	    -38.14645164	    -45.00000000	    -45.00000000	  -2074.78504109	    984.54030129	    134.52134994	   -168.50144057	   2169.70752027	     17.53712154	      9.72103702	    -21.53092950
      5.98000000	    -37.30209915	    -17.54754929	     21.46764236	   -180.92673517	    820.00283173	      4.99237626	      9.53001464	    -45.00000000	     39.43981062	    -45.00000000	    -45.00000000	   3138.92672912	   -465.97486042	    147.61494943	   -108.80458223	   1104.70033070	    176.41208995	     10.43099692	      4.90947583	     15.62376298	     38.14449999	    -38.23698200	    -45.00000000	    -45.00000000	  -2074.93547451	    984.39239119	    134.46318282	   -168.36669455	   2169.65235570	     17.58620865	      9.94831675	    -21.38247390
      5.99000000	    -37.16379621	    -18.02809899	     22.14272507	   -176.21348297	    818.31451976	      4.90405357	      9.43450171	    -45.00000000	     39.42464745	    -45.00000000	    -45.00000000	   3139.21386309	   -466.12677798	    147.66509645	   -108.80160652	   1104.55363104	    178.30926439	     10.28925847	      4.79214314	     15.80535608	     38.20986664	    -38.38544740	    -45.00000000	    -45.00000000	  -2075.19162753	    984.27411753	    134.50260905	   -168.21924452	   2169.61183819	     17.75514977	     10.15582689	    -21.24589414
      6.00000000	    -36.95430243	    -18.47529843	     22.82710864	   -171.37258754	    816.41165720	      4.80439807	      9.31109361	    -45.00000000	     39.41258337	    -45.00000000	    -45.00000000	   3139.49433225	   -466.27030212	    147.69481114	   -108.73845022	   1104.37281250	    180.28235072	     10.14882155	      4.60108510	     15.87626087	     38.22013129	    -38.47167745	    -45.00000000	    -45.00000000	  -2075.53604140	    984.12605077	    134.52027170	   -168.01977118	   2169.51160570	     18.05551724	     10.41897788	    -21.11555891
